<svg width="96" height="96" viewBox="0 0 96 96" fill="none" xmlns="http://www.w3.org/2000/svg" role="img" aria-labelledby="title desc">
  <title id="title">Limpeza profunda</title>
  <desc id="desc">Ícone minimalista de gotas com brilhos, representando higienização profunda.</desc>
  <rect x="8" y="8" width="80" height="80" rx="14" fill="#EEF3F5"/>
  <path d="M36 60C27.8 60 23 53.7 23 46.6C23 35.8 36 21 36 21C36 21 49 35.8 49 46.6C49 53.7 44.2 60 36 60Z" stroke="#111318" stroke-width="3" stroke-linejoin="round"/>
  <path d="M57.5 72C51.7 72 48 67.7 48 62.6C48 55.1 57.5 44 57.5 44C57.5 44 67 55.1 67 62.6C67 67.7 63.3 72 57.5 72Z" stroke="#111318" stroke-width="3" stroke-linejoin="round"/>
  <path d="M64 22V39" stroke="#FF3B5C" stroke-width="2.6" stroke-linecap="round"/>
  <path d="M55.5 30.5H72.5" stroke="#FF3B5C" stroke-width="2.6" stroke-linecap="round"/>
  <path d="M78 41V51" stroke="#FF3B5C" stroke-width="2.4" stroke-linecap="round"/>
  <path d="M73 46H83" stroke="#FF3B5C" stroke-width="2.4" stroke-linecap="round"/>
</svg>
